<svg xmlns="http://www.w3.org/2000/svg" xmlns:xlink="http://www.w3.org/1999/xlink" version="1.1" id="Layer_1" viewBox="0 0 660 180" xml:space="preserve">
  <g>
    <path fill="#C6C6C6" d="M121.631 102.74c0 9.57-1.226 17.932-3.674 25.079c-2.45 7.149-6.024 13.074-10.724 17.8 c-4.7 4.7-10.468 8.218-17.304 10.554s-14.983 3.503-24.438 3.503H42.078c-1.311 0-2.55-0.44-3.717-1.324 c-1.168-0.883-1.752-2.436-1.752-4.657V55.06c0-2.222 0.583-3.773 1.752-4.657c1.167-0.882 2.406-1.324 3.717-1.324h25.037 c9.57 0 17.7 1.2 24.3 3.717c6.607 2.5 12.1 6 16.6 10.682c4.472 4.6 7.9 10.3 10.2 16.9 C120.478 87 121.6 94.4 121.6 102.74z M106.165 103.338c0-5.98-0.741-11.549-2.222-16.705 c-1.482-5.155-3.803-9.613-6.964-13.373c-3.162-3.76-7.165-6.693-12.006-8.801c-4.843-2.107-11.081-3.162-18.713-3.162H51.307 v86.047h15.125c7.063 0 13.016-0.882 17.859-2.649c4.841-1.765 8.887-4.471 12.134-8.117c3.247-3.645 5.683-8.217 7.306-13.715 C105.354 117.4 106.2 110.9 106.2 103.338z"/>
  </g>
  <g>
    <path fill="#C7D978" d="M207.631 74.74c0 9.57-1.226 17.932-3.674 25.079c-2.45 7.149-6.024 13.074-10.724 17.8 c-4.7 4.7-10.468 8.218-17.304 10.554s-14.983 3.503-24.438 3.503h-23.413c-1.311 0-2.55-0.44-3.717-1.324 c-1.168-0.883-1.752-2.436-1.752-4.657V27.06c0-2.222 0.583-3.773 1.752-4.657c1.167-0.882 2.406-1.324 3.717-1.324h25.037 c9.571 0 17.7 1.2 24.3 3.717c6.607 2.5 12.1 6 16.6 10.682c4.472 4.6 7.9 10.3 10.2 16.9 C206.478 59 207.6 66.4 207.6 74.74z M192.165 75.338c0-5.981-0.741-11.549-2.222-16.706 c-1.482-5.155-3.803-9.613-6.964-13.373c-3.162-3.76-7.165-6.693-12.006-8.801c-4.843-2.107-11.08-3.162-18.713-3.162h-14.954 v86.047h15.125c7.063 0 13.016-0.882 17.859-2.649c4.841-1.765 8.887-4.471 12.134-8.117c3.247-3.645 5.683-8.217 7.306-13.715 C191.354 89.4 192.2 82.9 192.2 75.338z"/>
  </g>
  <g>
    <path d="M32.839 30.521h13.605c3.539 0 6.6 0.3 9.1 0.984c2.531 0.7 4.8 1.9 6.9 3.7 c5.367 4.6 8.1 11.6 8.1 20.953c0 3.094-0.27 5.918-0.809 8.473c-0.54 2.555-1.371 4.857-2.496 6.9 c-1.125 2.051-2.566 3.885-4.324 5.502c-1.383 1.243-2.895 2.238-4.535 2.988c-1.641 0.75-3.405 1.278-5.291 1.6 c-1.887 0.305-4.014 0.457-6.381 0.457H33.05c-1.898 0-3.328-0.287-4.289-0.861c-0.961-0.574-1.588-1.383-1.881-2.426 c-0.293-1.042-0.439-2.396-0.439-4.061V36.919c0-2.25 0.504-3.879 1.512-4.887C28.959 31 30.6 30.5 32.8 30.521z M36.882 38.783v34.98h7.91c1.734 0 3.094-0.047 4.078-0.141c0.984-0.093 2.004-0.328 3.059-0.703 c1.055-0.375 1.969-0.902 2.742-1.582c3.492-2.953 5.238-8.039 5.238-15.258c0-5.085-0.768-8.895-2.303-11.426 c-1.535-2.531-3.428-4.143-5.678-4.834c-2.25-0.691-4.969-1.037-8.156-1.037H36.882z"/>
    <path d="M103.257 77.525c-2.32 1.805-4.565 3.159-6.732 4.061c-2.168 0.902-4.6 1.354-7.295 1.4 c-2.461 0-4.623-0.487-6.486-1.459s-3.299-2.291-4.307-3.955c-1.008-1.664-1.512-3.468-1.512-5.414 c0-2.625 0.832-4.863 2.496-6.715c1.664-1.851 3.949-3.094 6.855-3.727c0.609-0.141 2.121-0.457 4.535-0.949 c2.414-0.492 4.482-0.943 6.205-1.354c1.723-0.41 3.591-0.908 5.607-1.494c-0.118-2.531-0.627-4.389-1.529-5.572 c-0.902-1.183-2.772-1.775-5.607-1.775c-2.438 0-4.271 0.34-5.502 1.02c-1.23 0.68-2.285 1.7-3.164 3.1 c-0.879 1.359-1.5 2.256-1.863 2.689c-0.364 0.434-1.143 0.65-2.338 0.65c-1.078 0-2.01-0.346-2.795-1.037 c-0.786-0.691-1.178-1.576-1.178-2.654c0-1.688 0.598-3.328 1.793-4.922c1.195-1.594 3.059-2.906 5.59-3.938 c2.531-1.031 5.683-1.547 9.457-1.547c4.219 0 7.5 0.5 9.9 1.494c2.414 1 4.1 2.6 5.1 4.7 c0.996 2.2 1.5 5 1.5 8.578c0 2.25-0.006 4.161-0.018 5.73c-0.012 1.57-0.03 3.317-0.053 5.2 c0 1.8 0.3 3.7 0.9 5.643c0.598 2 0.9 3.2 0.9 3.779c0 0.984-0.463 1.881-1.389 2.7 c-0.926 0.809-1.975 1.213-3.146 1.213c-0.984 0-1.957-0.463-2.918-1.389C105.354 80.6 104.3 79.3 103.3 77.525z M102.624 63.638c-1.406 0.516-3.451 1.061-6.135 1.635c-2.684 0.575-4.541 0.997-5.572 1.266c-1.032 0.27-2.016 0.797-2.953 1.6 c-0.938 0.786-1.406 1.881-1.406 3.287c0 1.5 0.6 2.7 1.7 3.709c1.102 1 2.5 1.5 4.3 1.5 c1.898 0 3.65-0.416 5.256-1.248c1.605-0.832 2.783-1.904 3.533-3.217c0.867-1.453 1.301-3.844 1.301-7.172V63.638z"/>
    <path d="M130.503 49.224v1.16c1.688-2.227 3.533-3.861 5.537-4.904c2.004-1.042 4.307-1.564 6.908-1.564 c2.531 0 4.8 0.6 6.8 1.652c1.992 1.1 3.5 2.7 4.5 4.676c0.633 1.2 1 2.4 1.2 3.8 c0.188 1.4 0.3 3.1 0.3 5.203v17.859c0 1.922-0.439 3.375-1.318 4.359s-2.021 1.477-3.428 1.5 c-1.43 0-2.59-0.504-3.48-1.512c-0.891-1.007-1.336-2.449-1.336-4.324V61.107c0-3.164-0.439-5.584-1.318-7.26 c-0.879-1.675-2.631-2.514-5.256-2.514c-1.711 0-3.27 0.51-4.676 1.529s-2.438 2.42-3.094 4.2 c-0.469 1.43-0.703 4.102-0.703 8.016v12.023c0 1.946-0.452 3.405-1.354 4.377c-0.902 0.972-2.069 1.459-3.498 1.5 c-1.383 0-2.52-0.504-3.41-1.512c-0.891-1.007-1.336-2.449-1.336-4.324V49.365c0-1.828 0.398-3.193 1.195-4.096 c0.796-0.902 1.886-1.354 3.27-1.354c0.844 0 1.6 0.2 2.3 0.598c0.68 0.4 1.2 1 1.6 1.8 C130.297 47.1 130.5 48.1 130.5 49.224z"/>
    <path d="M170.124 39.451c-1.336 0-2.479-0.41-3.428-1.23c-0.949-0.82-1.424-1.98-1.424-3.48c0-1.359 0.486-2.479 1.459-3.357 c0.972-0.879 2.104-1.318 3.393-1.318c1.242 0 2.3 0.4 3.3 1.195c0.961 0.8 1.4 2 1.4 3.5 c0 1.477-0.469 2.631-1.406 3.463C172.526 39 171.4 39.5 170.1 39.451z M174.87 49.365v27.738 c0 1.922-0.457 3.375-1.371 4.359s-2.074 1.477-3.48 1.477s-2.549-0.504-3.428-1.512s-1.318-2.449-1.318-4.324V49.646 c0-1.898 0.439-3.328 1.318-4.289c0.879-0.961 2.021-1.441 3.428-1.441s2.566 0.5 3.5 1.4 C174.413 46.3 174.9 47.7 174.9 49.365z"/>
    <path d="M215.687 70.388c0 2.649-0.645 4.917-1.934 6.803c-1.289 1.887-3.194 3.317-5.713 4.3 c-2.52 0.972-5.584 1.459-9.193 1.459c-3.445 0-6.398-0.527-8.859-1.582s-4.277-2.373-5.449-3.955 c-1.172-1.582-1.758-3.169-1.758-4.764c0-1.055 0.375-1.957 1.125-2.707c0.75-0.75 1.699-1.125 2.848-1.125 c1.007 0 1.8 0.2 2.3 0.738c0.539 0.5 1.1 1.2 1.5 2.074c0.984 1.7 2.2 3 3.5 3.832s3.24 1.3 5.6 1.3 c1.921 0 3.498-0.427 4.729-1.283c1.23-0.855 1.846-1.833 1.846-2.936c0-1.688-0.639-2.918-1.916-3.691 c-1.278-0.773-3.381-1.512-6.311-2.215c-3.305-0.82-5.994-1.682-8.068-2.584c-2.074-0.902-3.732-2.092-4.975-3.568 c-1.243-1.477-1.863-3.292-1.863-5.449c0-1.921 0.574-3.738 1.723-5.449c1.148-1.71 2.842-3.076 5.08-4.096 c2.238-1.02 4.939-1.529 8.104-1.529c2.484 0 4.7 0.3 6.7 0.773c1.98 0.5 3.6 1.2 5 2.1 c1.324 0.9 2.3 1.8 3 2.883c0.691 1.1 1 2.1 1 3.094c0 1.102-0.369 2.004-1.107 2.7 s-1.788 1.055-3.146 1.055c-0.984 0-1.823-0.281-2.514-0.844c-0.691-0.562-1.482-1.406-2.373-2.531 c-0.727-0.937-1.582-1.688-2.566-2.25s-2.32-0.844-4.008-0.844c-1.735 0-3.176 0.369-4.324 1.1 c-1.148 0.738-1.723 1.658-1.723 2.76c0 1 0.4 1.8 1.3 2.479c0.844 0.6 2 1.2 3.4 1.6 c1.429 0.4 3.4 0.9 5.9 1.547c2.976 0.7 5.4 1.6 7.3 2.602c1.886 1 3.3 2.2 4.3 3.6 C215.2 67.1 215.7 68.6 215.7 70.388z"/>
    <path d="M233.194 35.478v14.238c1.218-1.406 2.408-2.519 3.568-3.34c1.16-0.82 2.443-1.436 3.85-1.846 c1.406-0.41 2.918-0.615 4.535-0.615c2.438 0 4.6 0.5 6.5 1.547c1.886 1 3.4 2.5 4.4 4.5 c0.68 1.1 1.1 2.4 1.4 3.85c0.234 1.4 0.4 3.1 0.4 4.904v18.387c0 1.922-0.439 3.375-1.318 4.4 s-2.045 1.477-3.498 1.477c-3.164 0-4.746-1.945-4.746-5.836V60.896c0-3.07-0.457-5.432-1.371-7.084s-2.649-2.479-5.203-2.479 c-1.711 0-3.252 0.487-4.623 1.459c-1.371 0.973-2.396 2.303-3.076 3.99c-0.516 1.43-0.773 3.973-0.773 7.629v12.691 c0 1.898-0.428 3.346-1.283 4.342c-0.856 0.996-2.045 1.494-3.568 1.494c-3.164 0-4.746-1.945-4.746-5.836V35.478 c0-1.945 0.416-3.404 1.248-4.377c0.832-0.972 1.998-1.459 3.498-1.459c1.523 0 2.7 0.5 3.6 1.5 C232.767 32.1 233.2 33.6 233.2 35.478z"/>
    <path fill="#86BC25" d="M269.378 80.13c1.905-0.124 3.278-0.396 4.119-0.816c1.484-0.767 2.227-2.165 2.227-4.193V37.64 c0-1.954-0.705-3.315-2.115-4.082c-0.816-0.445-2.227-0.754-4.23-0.928v-1.93h23.23c9.376 0 16.5 2.5 21.4 7.5 c4.477 4.6 6.7 10.7 6.7 18.332c0 6.878-2.252 12.704-6.754 17.479c-5.072 5.369-11.95 8.053-20.633 8.053h-24.01V80.13z M288.879 78.46c0.507 0.7 1.6 1 3.2 1.039c4.502 0 8.201-1.589 11.096-4.769c2.895-3.179 4.342-9.283 4.342-18.313 c0-5.368-0.779-9.982-2.338-13.842c-2.524-6.209-6.779-9.314-12.766-9.314c-1.979 0-3.266 0.421-3.859 1.3 c-0.396 0.544-0.594 1.596-0.594 3.154v37.406C288.081 76.6 288.4 77.8 288.9 78.46z"/>
    <path fill="#86BC25" d="M330.317 51.018c3.107-3.229 6.854-4.843 11.238-4.843c2.502 0 4.9 0.7 7.1 2 c2.205 1.3 3.9 3.1 5.1 5.455c0.891 1.8 1.5 4 1.9 6.828c0.174 1.3 0.3 2.3 0.3 3.006h-19.408 c0.174 3 0.7 5.7 1.5 7.904c1.486 4.2 4.1 6.3 7.8 6.271c1.785 0 3.471-0.557 5.057-1.67 c0.967-0.668 2.17-1.793 3.607-3.377l1.744 1.076c-2.352 3.859-5.076 6.544-8.174 8.053c-2.006 0.965-4.309 1.447-6.91 1.4 c-3.74 0-7.246-1.472-10.516-4.416c-3.27-2.944-4.904-7.645-4.904-14.102C325.653 58.8 327.2 54.2 330.3 51.018z M346.472 60.611c-0.049-4.478-0.396-7.607-1.043-9.389s-1.936-2.672-3.873-2.672c-1.986 0-3.346 1.027-4.078 3.1 c-0.732 2.054-1.148 5.047-1.248 8.98H346.472z"/>
    <path fill="#86BC25" d="M386.364 48.439c2.338 1.6 3.5 3.6 3.5 6.012c0 1.312-0.463 2.449-1.391 3.4 s-2.109 1.447-3.545 1.447c-0.965 0-1.807-0.223-2.523-0.668c-1.361-0.792-2.041-2.227-2.041-4.305c0-0.223 0.012-0.55 0.037-0.983 c0.025-0.433 0.037-0.896 0.037-1.392c0-1.336-0.309-2.251-0.928-2.746c-0.643-0.495-1.373-0.742-2.189-0.742 c-2.35 0-4.02 1.293-5.01 3.878c-0.99 2.585-1.484 5.548-1.484 8.888c0 4.8 0.9 8.7 2.8 11.9 c1.881 3.2 4.4 4.8 7.6 4.824c2.004 0 3.711-0.445 5.121-1.336c0.842-0.52 1.881-1.472 3.117-2.857l1.41 1.3 c-2.475 3.439-5.369 5.802-8.684 7.088c-1.756 0.668-3.625 1.002-5.604 1.002c-4.873 0-8.857-1.744-11.949-5.232 s-4.639-7.743-4.639-12.766c0-5.294 1.639-9.803 4.918-13.526c3.277-3.723 7.65-5.585 13.117-5.585 C381.261 46.1 384 46.9 386.4 48.439z"/>
    <path fill="#86BC25" d="M399.519 51.408c3.252-3.538 7.34-5.307 12.264-5.307c5.021 0 9.1 1.8 12.3 5.4 c3.203 3.6 4.8 8 4.8 13.137c0 5.072-1.584 9.432-4.75 13.081c-3.166 3.649-7.299 5.474-12.395 5.5 c-4.947 0-9.043-1.775-12.283-5.325c-3.24-3.55-4.861-7.96-4.861-13.229C394.638 59.4 396.3 54.9 399.5 51.408z M406.624 75.826c0.865 3.3 2.6 4.9 5.2 4.936c2.449 0 4.057-1.262 4.824-3.785s1.15-6.63 1.15-12.32 c0-5.665-0.402-9.766-1.205-12.302c-0.805-2.536-2.383-3.804-4.732-3.804c-2.572 0-4.293 1.646-5.158 4.9 c-0.568 2.202-0.854 5.925-0.854 11.17C405.808 70 406.1 73.7 406.6 75.826z"/>
    <path fill="#86BC25" d="M433.101 80.242c1.459-0.173 2.475-0.52 3.043-1.039s0.879-1.521 0.928-3.006l0.074-2.227V53.3 c0-1.597-0.271-2.682-0.816-3.256c-0.545-0.574-1.621-0.961-3.229-1.16v-1.818h14.398v5.975c1.611-2.103 3.211-3.772 4.799-5.01 c1.586-1.237 3.422-1.855 5.504-1.855c1.562 0 3 0.5 4.2 1.503c1.254 1 1.9 2.5 1.9 4.4 c0 1.484-0.439 2.709-1.32 3.674s-2.027 1.447-3.439 1.447c-1.613 0-3.008-0.754-4.186-2.264c-1.178-1.509-2.002-2.264-2.473-2.264 c-1.018 0-2.041 0.625-3.068 1.874c-1.029 1.25-1.545 3.04-1.545 5.37v14.391c0 2.5 0.4 4.1 1.1 4.7 c0.729 0.6 2.2 1 4.4 1.236v1.818h-20.225V80.242z"/>
    <path fill="#86BC25" d="M473.087 66.818c3.289-2.007 8.447-4.027 15.475-6.059V55.23c0-2.251-0.477-3.915-1.43-4.991 s-2.641-1.614-5.064-1.614c-1.361 0-2.48 0.254-3.359 0.761c-0.879 0.507-1.316 1.145-1.316 1.911c0 0.3 0 0.5 0.1 0.7 c0.098 0.2 0.2 0.4 0.4 0.631l0.445 0.52c0.346 0.4 0.6 0.9 0.8 1.392c0.211 0.5 0.3 1 0.3 1.6 c0 1.435-0.477 2.542-1.43 3.321s-2.059 1.169-3.32 1.169c-1.461 0-2.703-0.432-3.73-1.295s-1.539-2.11-1.539-3.739 c0-2.912 1.373-5.219 4.119-6.921c2.746-1.703 6.123-2.554 10.131-2.554c4.305 0 7.9 0.8 10.8 2.5 c2.869 1.7 4.3 4.8 4.3 9.277v18.406c0 0.5 0.1 1 0.4 1.392c0.285 0.4 0.6 0.6 0.9 0.6 c0.297 0 0.562-0.056 0.797-0.167s0.6-0.414 1.096-0.909l1.15 1.596c-1.484 1.732-3.131 2.944-4.936 3.6 c-1.139 0.445-2.338 0.668-3.6 0.668c-2.252 0-3.896-0.657-4.936-1.97c-0.594-0.744-1.027-1.847-1.299-3.309 c-2.104 2.107-4.479 3.594-7.125 4.461c-1.609 0.545-3.191 0.818-4.75 0.818c-2.078 0-4.021-0.663-5.826-1.988 c-1.807-1.326-2.709-3.389-2.709-6.189C468.151 71.5 469.8 68.8 473.1 66.818z M486.335 76.6 c0.594-0.446 1.299-1.141 2.115-2.083V63.394c-2.029 0.496-3.811 1.277-5.344 2.344c-2.598 1.812-3.896 4.118-3.896 6.9 c0 1.7 0.4 2.9 1.1 3.777s1.602 1.3 2.5 1.283C484.12 77.7 485.3 77.3 486.3 76.602z"/>
    <path fill="#86BC25" d="M506.206 50.406v-2.115c0.668-0.618 1.496-1.348 2.486-2.189c1.311-1.212 2.547-2.461 3.711-3.748 c2.301-2.523 4.391-5.232 6.271-8.127h1.93v12.84h7.236v3.34h-7.236v22.859c0 1.1 0.2 2 0.5 2.7 c0.494 1.1 1.3 1.7 2.4 1.67c0.988 0 1.818-0.353 2.486-1.058s1.336-1.676 2.004-2.913l1.818 0.9 c-0.891 2.078-1.953 3.773-3.189 5.084c-2.174 2.301-4.832 3.451-7.971 3.451c-1.779 0-3.336-0.334-4.67-1.002 c-2.572-1.286-3.863-3.624-3.875-7.014V50.406H506.206z"/>
    <path fill="#86BC25" d="M532.274 80.242c1.336-0.223 2.25-0.557 2.746-1.002c0.742-0.668 1.113-1.868 1.113-3.6V53.3 c0-1.547-0.26-2.601-0.779-3.163c-0.52-0.561-1.547-0.979-3.08-1.253v-1.818h14.584v28.871c0 1.7 0.2 2.7 0.7 3.2 c0.494 0.5 1.4 0.8 2.8 1.113v1.818h-18.109V80.242z M537.339 31.276c1.15-1.15 2.543-1.726 4.176-1.726 c1.607 0 3 0.6 4.1 1.726s1.727 2.5 1.7 4.175s-0.576 3.024-1.727 4.175s-2.529 1.726-4.137 1.7 c-1.633 0-3.025-0.575-4.176-1.726s-1.725-2.542-1.725-4.175S536.188 32.4 537.3 31.276z"/>
    <path fill="#86BC25" d="M559.474 51.408c3.254-3.538 7.342-5.307 12.266-5.307c5.021 0 9.1 1.8 12.3 5.4 c3.203 3.6 4.8 8 4.8 13.137c0 5.072-1.584 9.432-4.75 13.081c-3.168 3.649-7.299 5.474-12.395 5.5 c-4.949 0-9.043-1.775-12.283-5.325c-3.242-3.55-4.861-7.96-4.861-13.229C554.595 59.4 556.2 54.9 559.5 51.408z M566.581 75.826c0.865 3.3 2.6 4.9 5.2 4.936c2.449 0 4.057-1.262 4.824-3.785c0.766-2.523 1.15-6.63 1.15-12.32 c0-5.665-0.402-9.766-1.207-12.302c-0.805-2.536-2.381-3.804-4.73-3.804c-2.574 0-4.293 1.646-5.158 4.9 c-0.57 2.202-0.854 5.925-0.854 11.17C565.765 70 566 73.7 566.6 75.826z"/>
    <path fill="#86BC25" d="M592.909 80.242c1.385-0.173 2.406-0.55 3.062-1.132c0.654-0.581 0.982-1.738 0.982-3.47V53.3 c0-1.547-0.266-2.62-0.797-3.219c-0.533-0.598-1.615-0.998-3.248-1.197v-1.818h14.398v5.455c1.213-1.831 2.752-3.346 4.621-4.546 c1.867-1.2 3.939-1.8 6.215-1.8c3.266 0 5.8 0.8 7.6 2.523c1.793 1.7 2.7 4.6 2.7 8.869v18.369 c0 1.7 0.3 2.8 0.9 3.303c0.58 0.5 1.6 0.8 2.9 1.002v1.818h-17.85v-1.818c1.361-0.272 2.289-0.643 2.783-1.113 c0.494-0.47 0.742-1.534 0.742-3.191V57.531c0-1.731-0.174-3.03-0.52-3.896c-0.594-1.559-1.77-2.338-3.525-2.338 c-1.311 0-2.518 0.477-3.617 1.429c-1.102 0.953-1.949 1.911-2.543 2.876v20.336c0 1.7 0.2 2.7 0.7 3.2 c0.494 0.5 1.4 0.8 2.8 1.113v1.818h-18.295V80.242z"/>
  </g>
  <g>
    <path d="M214.08 104.636c0 1.386-0.357 2.63-1.07 3.734c-0.714 1.104-1.758 1.969-3.133 2.594s-3.005 0.938-4.891 0.9 c-2.261 0-4.125-0.427-5.594-1.281c-1.042-0.614-1.888-1.435-2.539-2.461c-0.651-1.026-0.977-2.023-0.977-2.992 c0-0.562 0.195-1.044 0.586-1.445s0.888-0.602 1.492-0.602c0.489 0 0.9 0.2 1.2 0.469c0.338 0.3 0.6 0.8 0.9 1.4 c0.292 0.7 0.6 1.3 0.9 1.828c0.338 0.5 0.8 0.9 1.4 1.211c0.614 0.3 1.4 0.5 2.4 0.5 c1.375 0 2.492-0.32 3.352-0.961s1.289-1.44 1.289-2.398c0-0.761-0.232-1.378-0.695-1.852c-0.464-0.474-1.062-0.836-1.797-1.086 s-1.716-0.516-2.945-0.797c-1.646-0.386-3.023-0.836-4.133-1.352s-1.99-1.219-2.641-2.109c-0.651-0.891-0.977-1.997-0.977-3.32 c0-1.261 0.344-2.38 1.031-3.359s1.682-1.731 2.984-2.258c1.302-0.526 2.833-0.789 4.594-0.789c1.406 0 2.6 0.2 3.6 0.5 c1.026 0.3 1.9 0.8 2.6 1.391c0.677 0.6 1.2 1.2 1.5 1.82s0.469 1.3 0.5 1.859c0 0.552-0.195 1.05-0.586 1.5 s-0.878 0.664-1.461 0.664c-0.531 0-0.935-0.133-1.211-0.398c-0.276-0.266-0.576-0.7-0.898-1.305 c-0.417-0.864-0.917-1.539-1.5-2.023c-0.583-0.484-1.521-0.727-2.812-0.727c-1.198 0-2.164 0.263-2.898 0.8 s-1.102 1.159-1.102 1.898c0 0.5 0.1 0.9 0.4 1.188s0.594 0.6 1 0.859s0.88 0.4 1.3 0.6 c0.448 0.1 1.2 0.3 2.2 0.594c1.292 0.3 2.5 0.6 3.5 1s1.938 0.8 2.7 1.328s1.307 1.2 1.7 2 C213.874 102.5 214.1 103.5 214.1 104.636z"/>
    <path d="M221.892 90.808v6.328c0.542-0.625 1.07-1.12 1.586-1.484s1.086-0.638 1.711-0.82s1.297-0.273 2.016-0.273 c1.083 0 2 0.2 2.9 0.688c0.838 0.5 1.5 1.1 2 2c0.302 0.5 0.5 1.1 0.6 1.7 c0.104 0.6 0.2 1.4 0.2 2.18v8.172c0 0.854-0.195 1.5-0.586 1.938s-0.909 0.656-1.555 0.7 c-1.406 0-2.109-0.864-2.109-2.594v-7.203c0-1.364-0.203-2.414-0.609-3.148s-1.177-1.102-2.312-1.102 c-0.761 0-1.445 0.216-2.055 0.648s-1.065 1.023-1.367 1.773c-0.229 0.636-0.344 1.766-0.344 3.391v5.641 c0 0.844-0.19 1.487-0.57 1.93c-0.38 0.442-0.909 0.664-1.586 0.664c-1.406 0-2.109-0.864-2.109-2.594v-18.5 c0-0.864 0.185-1.513 0.555-1.945c0.37-0.432 0.888-0.648 1.555-0.648c0.677 0 1.2 0.2 1.6 0.7 C221.702 89.3 221.9 90 221.9 90.808z"/>
    <path d="M239.205 92.573c-0.594 0-1.102-0.183-1.523-0.547s-0.633-0.88-0.633-1.547c0-0.604 0.216-1.102 0.648-1.492 c0.432-0.391 0.935-0.586 1.508-0.586c0.552 0 1 0.2 1.5 0.531c0.427 0.4 0.6 0.9 0.6 1.5 c0 0.656-0.208 1.169-0.625 1.539C240.272 92.4 239.8 92.6 239.2 92.573z M241.314 96.979v12.328 c0 0.854-0.203 1.5-0.609 1.938s-0.922 0.656-1.547 0.656s-1.133-0.224-1.523-0.672s-0.586-1.089-0.586-1.922V97.104 c0-0.844 0.195-1.479 0.586-1.906s0.898-0.641 1.523-0.641s1.141 0.2 1.5 0.641S241.314 96.2 241.3 96.979z"/>
    <path d="M249.658 96.948v0.516c0.802-0.989 1.635-1.716 2.5-2.18c0.864-0.464 1.844-0.695 2.938-0.695 c1.312 0 2.5 0.3 3.6 1.016c1.104 0.7 2 1.7 2.6 2.969s0.961 2.8 1 4.625c0 1.312-0.185 2.519-0.555 3.6 c-0.37 1.099-0.878 2.021-1.523 2.766c-0.646 0.745-1.409 1.317-2.289 1.719c-0.88 0.401-1.826 0.602-2.836 0.6 c-1.219 0-2.242-0.245-3.07-0.734s-1.617-1.208-2.367-2.156v6.406c0 1.875-0.683 2.812-2.047 2.8 c-0.802 0-1.333-0.242-1.594-0.727c-0.261-0.484-0.391-1.19-0.391-2.117V96.979c0-0.812 0.177-1.419 0.531-1.82 c0.354-0.401 0.838-0.602 1.453-0.602c0.604 0 1.1 0.2 1.5 0.617C249.467 95.6 249.7 96.2 249.7 96.948z M258.017 103.151c0-1.125-0.172-2.091-0.516-2.898s-0.82-1.427-1.43-1.859s-1.284-0.648-2.023-0.648 c-1.177 0-2.169 0.464-2.977 1.391c-0.808 0.927-1.211 2.292-1.211 4.094c0 1.7 0.4 3 1.2 4 c0.802 0.9 1.8 1.4 3 1.414c0.708 0 1.364-0.206 1.969-0.617c0.604-0.411 1.088-1.028 1.453-1.852 C257.834 105.3 258 104.3 258 103.151z"/>
    <path d="M274.205 109.073V91.026c0-0.938 0.213-1.641 0.641-2.109c0.427-0.469 0.979-0.703 1.656-0.703 c0.698 0 1.3 0.2 1.7 0.695c0.432 0.5 0.6 1.2 0.6 2.117v18.047c0 0.948-0.216 1.656-0.648 2.1 c-0.433 0.469-0.998 0.703-1.695 0.703c-0.667 0-1.216-0.237-1.648-0.711C274.42 110.7 274.2 110 274.2 109.073z"/>
    <path d="M287.611 96.917v0.516c0.75-0.989 1.57-1.716 2.461-2.18s1.914-0.695 3.07-0.695c1.125 0 2.1 0.2 3 0.7 c0.885 0.5 1.5 1.2 2 2.078c0.281 0.5 0.5 1.1 0.5 1.688c0.083 0.6 0.1 1.4 0.1 2.312v7.938 c0 0.854-0.195 1.5-0.586 1.938s-0.898 0.656-1.523 0.656c-0.636 0-1.151-0.224-1.547-0.672c-0.396-0.448-0.594-1.089-0.594-1.922 v-7.109c0-1.406-0.195-2.481-0.586-3.227s-1.169-1.117-2.336-1.117c-0.761 0-1.453 0.227-2.078 0.68s-1.083 1.075-1.375 1.9 c-0.208 0.636-0.312 1.823-0.312 3.562v5.344c0 0.864-0.201 1.513-0.602 1.945c-0.401 0.433-0.919 0.648-1.555 0.6 c-0.615 0-1.12-0.224-1.516-0.672c-0.396-0.448-0.594-1.089-0.594-1.922V96.979c0-0.812 0.177-1.419 0.531-1.82 c0.354-0.401 0.838-0.602 1.453-0.602c0.375 0 0.7 0.1 1 0.266c0.302 0.2 0.5 0.4 0.7 0.8 C287.52 96 287.6 96.4 287.6 96.917z"/>
    <path d="M303.298 94.933h0.469V92.37c0-0.688 0.018-1.227 0.055-1.617c0.036-0.391 0.138-0.727 0.305-1.008 c0.167-0.292 0.406-0.528 0.719-0.711c0.312-0.182 0.661-0.273 1.047-0.273c0.542 0 1 0.2 1.5 0.6 c0.292 0.3 0.5 0.6 0.6 0.992s0.117 0.9 0.1 1.664v2.906h1.562c0.604 0 1.1 0.1 1.4 0.4 c0.317 0.3 0.5 0.7 0.5 1.102c0 0.573-0.227 0.974-0.68 1.203s-1.102 0.344-1.945 0.344h-0.797v7.844 c0 0.7 0 1.2 0.1 1.539s0.172 0.7 0.4 0.875s0.534 0.3 1 0.336c0.25 0 0.588-0.044 1.016-0.133 c0.427-0.089 0.76-0.133 1-0.133c0.344 0 0.7 0.1 0.9 0.414c0.276 0.3 0.4 0.6 0.4 1 c0 0.688-0.375 1.214-1.125 1.578s-1.828 0.547-3.234 0.547c-1.333 0-2.344-0.224-3.031-0.672s-1.138-1.067-1.352-1.859 c-0.214-0.792-0.32-1.849-0.32-3.172v-8.188h-0.562c-0.615 0-1.083-0.146-1.406-0.438c-0.323-0.292-0.484-0.661-0.484-1.109 s0.169-0.815 0.508-1.102C302.16 95.1 302.7 94.9 303.3 94.933z"/>
    <path d="M326.298 104.276h-8.343c0.01 1 0.2 1.8 0.6 2.562c0.38 0.7 0.9 1.3 1.5 1.7 c0.63 0.4 1.3 0.6 2.1 0.562c0.511 0 0.977-0.06 1.398-0.18s0.831-0.308 1.227-0.562c0.396-0.255 0.761-0.528 1.094-0.82 c0.334-0.292 0.766-0.688 1.297-1.188c0.219-0.188 0.531-0.281 0.938-0.281c0.438 0 0.8 0.1 1.1 0.4 c0.271 0.2 0.4 0.6 0.4 1.016c0 0.386-0.15 0.836-0.453 1.352c-0.302 0.516-0.758 1.011-1.367 1.5 s-1.375 0.867-2.297 1.18s-1.981 0.469-3.18 0.469c-2.739 0-4.87-0.781-6.39-2.344c-1.521-1.562-2.281-3.683-2.281-6.359 c0-1.261 0.188-2.43 0.562-3.508s0.922-2.003 1.641-2.773s1.604-1.362 2.656-1.773c1.052-0.411 2.219-0.617 3.5-0.617 c1.667 0 3.1 0.4 4.3 1.055c1.193 0.7 2.1 1.6 2.7 2.727s0.891 2.2 0.9 3.406c0 1.073-0.307 1.769-0.922 2.1 C328.277 104.1 327.4 104.3 326.3 104.276z M317.955 101.854h7.734c-0.104-1.458-0.497-2.55-1.18-3.273 c-0.682-0.724-1.58-1.086-2.695-1.086c-1.062 0-1.935 0.367-2.617 1.102C318.514 99.3 318.1 100.4 318 101.854z"/>
    <path d="M337.642 105.745v3.562c0 0.864-0.203 1.513-0.609 1.945s-0.922 0.648-1.547 0.648c-0.614 0-1.119-0.219-1.516-0.656 c-0.396-0.438-0.594-1.083-0.594-1.938V97.433c0-1.917 0.693-2.875 2.078-2.875c0.709 0 1.2 0.2 1.5 0.7 s0.484 1.1 0.5 1.984c0.511-0.875 1.034-1.536 1.57-1.984c0.537-0.448 1.253-0.672 2.148-0.672 c0.896 0 1.8 0.2 2.6 0.672s1.266 1 1.3 1.781c0 0.521-0.18 0.95-0.539 1.289s-0.747 0.508-1.164 0.5 c-0.156 0-0.533-0.097-1.133-0.289c-0.599-0.192-1.127-0.289-1.586-0.289c-0.625 0-1.135 0.164-1.531 0.5 c-0.396 0.328-0.703 0.815-0.922 1.461s-0.369 1.414-0.453 2.305C337.684 103.4 337.6 104.5 337.6 105.745z"/>
    <path d="M349.579 92.573c-0.594 0-1.102-0.183-1.523-0.547s-0.633-0.88-0.633-1.547c0-0.604 0.217-1.102 0.648-1.492 c0.433-0.391 0.936-0.586 1.508-0.586c0.553 0 1 0.2 1.5 0.531c0.428 0.4 0.6 0.9 0.6 1.5 c0 0.656-0.208 1.169-0.625 1.539C350.647 92.4 350.2 92.6 349.6 92.573z M351.688 96.979v12.328 c0 0.854-0.203 1.5-0.609 1.938s-0.922 0.656-1.547 0.656s-1.133-0.224-1.523-0.672s-0.586-1.089-0.586-1.922V97.104 c0-0.844 0.195-1.479 0.586-1.906s0.898-0.641 1.523-0.641s1.141 0.2 1.5 0.641S351.688 96.2 351.7 96.979z"/>
    <path d="M372.063 103.229c0 1.271-0.197 2.442-0.594 3.516c-0.396 1.073-0.969 1.995-1.719 2.766s-1.646 1.362-2.688 1.8 c-1.041 0.411-2.213 0.617-3.516 0.617c-1.291 0-2.453-0.208-3.484-0.625s-1.924-1.013-2.68-1.789 c-0.755-0.776-1.328-1.692-1.719-2.75s-0.586-2.227-0.586-3.508c0-1.292 0.198-2.474 0.594-3.547 c0.396-1.073 0.964-1.989 1.703-2.75c0.74-0.761 1.636-1.347 2.688-1.758c1.053-0.411 2.214-0.617 3.484-0.617 c1.292 0 2.5 0.2 3.5 0.625c1.053 0.4 2 1 2.7 1.781s1.32 1.7 1.7 2.75S372.063 101.9 372.1 103.229z M367.782 103.229c0-1.739-0.383-3.094-1.148-4.062s-1.794-1.453-3.086-1.453c-0.833 0-1.567 0.216-2.203 0.6 c-0.635 0.433-1.125 1.07-1.469 1.914s-0.516 1.828-0.516 2.953c0 1.1 0.2 2.1 0.5 2.9 c0.339 0.8 0.8 1.5 1.5 1.914c0.631 0.4 1.4 0.7 2.2 0.664c1.292 0 2.32-0.487 3.086-1.461 S367.782 104.9 367.8 103.229z"/>
    <path d="M379.657 105.745v3.562c0 0.864-0.203 1.513-0.609 1.945s-0.922 0.648-1.547 0.648c-0.614 0-1.119-0.219-1.516-0.656 c-0.396-0.438-0.594-1.083-0.594-1.938V97.433c0-1.917 0.693-2.875 2.078-2.875c0.709 0 1.2 0.2 1.5 0.7 s0.484 1.1 0.5 1.984c0.511-0.875 1.034-1.536 1.57-1.984c0.537-0.448 1.253-0.672 2.148-0.672 c0.896 0 1.8 0.2 2.6 0.672s1.266 1 1.3 1.781c0 0.521-0.18 0.95-0.539 1.289s-0.747 0.508-1.164 0.5 c-0.156 0-0.533-0.097-1.133-0.289c-0.599-0.192-1.127-0.289-1.586-0.289c-0.625 0-1.135 0.164-1.531 0.5 c-0.396 0.328-0.703 0.815-0.922 1.461s-0.369 1.414-0.453 2.305C379.699 103.4 379.7 104.5 379.7 105.745z"/>
    <path d="M417.251 104.276c0 0.729-0.18 1.519-0.539 2.367s-0.924 1.683-1.695 2.5c-0.771 0.817-1.755 1.481-2.953 2 c-1.197 0.511-2.594 0.766-4.188 0.766c-1.208 0-2.307-0.114-3.297-0.344c-0.989-0.229-1.888-0.586-2.695-1.07 c-0.807-0.484-1.549-1.122-2.227-1.914c-0.604-0.719-1.119-1.523-1.547-2.414c-0.427-0.891-0.747-1.841-0.961-2.852 c-0.213-1.011-0.32-2.083-0.32-3.219c0-1.844 0.269-3.495 0.805-4.953c0.537-1.458 1.305-2.706 2.305-3.742 s2.172-1.825 3.516-2.367c1.344-0.542 2.776-0.812 4.297-0.812c1.854 0 3.5 0.4 5 1.1 c1.448 0.7 2.6 1.7 3.3 2.742c0.771 1.1 1.2 2.1 1.2 3.086c0 0.531-0.188 1-0.562 1.406s-0.828 0.609-1.359 0.6 c-0.594 0-1.039-0.141-1.336-0.422s-0.627-0.766-0.992-1.453c-0.604-1.136-1.314-1.984-2.133-2.547 c-0.817-0.562-1.825-0.844-3.023-0.844c-1.906 0-3.424 0.724-4.555 2.172c-1.13 1.448-1.695 3.505-1.695 6.2 c0 1.8 0.2 3.3 0.8 4.445s1.209 2.1 2.1 2.648c0.917 0.6 2 0.9 3.2 0.875c1.334 0 2.461-0.331 3.383-0.992 s1.617-1.633 2.086-2.914c0.198-0.604 0.443-1.097 0.734-1.477c0.292-0.38 0.761-0.57 1.406-0.57c0.553 0 1 0.2 1.4 0.6 C417.054 103.2 417.3 103.7 417.3 104.276z"/>
    <path d="M437.095 103.229c0 1.271-0.197 2.442-0.594 3.516c-0.396 1.073-0.969 1.995-1.719 2.766s-1.646 1.362-2.688 1.8 c-1.041 0.411-2.213 0.617-3.516 0.617c-1.291 0-2.453-0.208-3.484-0.625s-1.924-1.013-2.68-1.789 c-0.755-0.776-1.328-1.692-1.719-2.75s-0.586-2.227-0.586-3.508c0-1.292 0.198-2.474 0.594-3.547 c0.396-1.073 0.964-1.989 1.703-2.75c0.74-0.761 1.636-1.347 2.688-1.758c1.053-0.411 2.214-0.617 3.484-0.617 c1.292 0 2.5 0.2 3.5 0.625c1.053 0.4 2 1 2.7 1.781s1.32 1.7 1.7 2.75S437.095 101.9 437.1 103.229z M432.813 103.229c0-1.739-0.383-3.094-1.148-4.062s-1.794-1.453-3.086-1.453c-0.833 0-1.567 0.216-2.203 0.6 c-0.635 0.433-1.125 1.07-1.469 1.914s-0.516 1.828-0.516 2.953c0 1.1 0.2 2.1 0.5 2.9 c0.339 0.8 0.8 1.5 1.5 1.914c0.631 0.4 1.4 0.7 2.2 0.664c1.292 0 2.32-0.487 3.086-1.461 S432.813 104.9 432.8 103.229z"/>
    <path d="M444.329 96.917v0.516c0.75-0.989 1.57-1.716 2.461-2.18s1.914-0.695 3.07-0.695c1.125 0 2.1 0.2 3 0.7 c0.886 0.5 1.5 1.2 2 2.078c0.281 0.5 0.5 1.1 0.5 1.688c0.084 0.6 0.1 1.4 0.1 2.312v7.938 c0 0.854-0.195 1.5-0.586 1.938s-0.898 0.656-1.523 0.656c-0.635 0-1.15-0.224-1.547-0.672c-0.396-0.448-0.594-1.089-0.594-1.922 v-7.109c0-1.406-0.195-2.481-0.586-3.227s-1.169-1.117-2.336-1.117c-0.76 0-1.453 0.227-2.078 0.68s-1.083 1.075-1.375 1.9 c-0.208 0.636-0.312 1.823-0.312 3.562v5.344c0 0.864-0.2 1.513-0.602 1.945c-0.4 0.433-0.919 0.648-1.555 0.6 c-0.614 0-1.119-0.224-1.516-0.672c-0.396-0.448-0.594-1.089-0.594-1.922V96.979c0-0.812 0.178-1.419 0.531-1.82 c0.354-0.401 0.839-0.602 1.453-0.602c0.375 0 0.7 0.1 1 0.266c0.303 0.2 0.5 0.4 0.7 0.8 C444.238 96 444.3 96.4 444.3 96.917z"/>
    <path d="M473.517 106.323c0 1.177-0.286 2.185-0.859 3.023c-0.572 0.839-1.419 1.474-2.539 1.9 c-1.119 0.433-2.481 0.648-4.086 0.648c-1.531 0-2.844-0.234-3.938-0.703s-1.9-1.055-2.422-1.758 c-0.521-0.703-0.781-1.409-0.781-2.117c0-0.469 0.167-0.87 0.5-1.203c0.334-0.333 0.756-0.5 1.266-0.5 c0.448 0 0.8 0.1 1 0.328c0.24 0.2 0.5 0.5 0.7 0.922c0.438 0.8 1 1.3 1.6 1.703s1.44 0.6 2.5 0.6 c0.854 0 1.555-0.19 2.102-0.57s0.82-0.815 0.82-1.305c0-0.75-0.283-1.297-0.852-1.641c-0.567-0.344-1.502-0.672-2.805-0.984 c-1.469-0.364-2.664-0.747-3.586-1.148s-1.658-0.93-2.211-1.586c-0.552-0.656-0.828-1.464-0.828-2.422 c0-0.854 0.256-1.661 0.766-2.422c0.511-0.761 1.264-1.367 2.258-1.82c0.995-0.453 2.195-0.68 3.602-0.68 c1.104 0 2.1 0.1 3 0.344c0.881 0.2 1.6 0.5 2.2 0.922c0.589 0.4 1 0.8 1.3 1.3 c0.308 0.5 0.5 0.9 0.5 1.375c0 0.489-0.164 0.891-0.492 1.203s-0.794 0.469-1.398 0.469c-0.438 0-0.81-0.125-1.117-0.375 c-0.307-0.25-0.658-0.625-1.055-1.125c-0.322-0.417-0.703-0.75-1.141-1s-1.031-0.375-1.781-0.375c-0.771 0-1.411 0.164-1.922 0.5 c-0.51 0.328-0.766 0.737-0.766 1.227c0 0.4 0.2 0.8 0.6 1.102s0.881 0.5 1.5 0.7 c0.636 0.2 1.5 0.4 2.6 0.688c1.323 0.3 2.4 0.7 3.2 1.156c0.839 0.4 1.5 1 1.9 1.6 C473.301 104.8 473.5 105.5 473.5 106.323z"/>
    <path d="M488.205 109.495v-0.547c-0.512 0.646-1.047 1.188-1.609 1.625s-1.178 0.763-1.844 1 c-0.668 0.214-1.428 0.32-2.281 0.32c-1.031 0-1.957-0.214-2.773-0.641c-0.818-0.427-1.451-1.016-1.898-1.766 c-0.531-0.906-0.797-2.208-0.797-3.906v-8.453c0-0.854 0.191-1.492 0.578-1.914c0.385-0.422 0.895-0.633 1.531-0.633 c0.645 0 1.2 0.2 1.6 0.641c0.395 0.4 0.6 1.1 0.6 1.906v6.828c0 1 0.1 1.8 0.2 2.5 c0.166 0.7 0.5 1.2 0.9 1.578c0.432 0.4 1 0.6 1.8 0.57c0.719 0 1.395-0.214 2.031-0.641 c0.635-0.427 1.098-0.984 1.391-1.672c0.238-0.604 0.359-1.927 0.359-3.969v-5.188c0-0.844 0.197-1.479 0.594-1.906 c0.395-0.427 0.91-0.641 1.547-0.641c0.635 0 1.1 0.2 1.5 0.633c0.385 0.4 0.6 1.1 0.6 1.914v12.359 c0 0.812-0.186 1.422-0.555 1.828c-0.371 0.406-0.848 0.609-1.43 0.609c-0.584 0-1.066-0.211-1.445-0.633 C488.395 110.8 488.2 110.3 488.2 109.495z"/>
    <path d="M496.455 109.308v-18.5c0-0.854 0.189-1.5 0.57-1.938c0.38-0.438 0.893-0.656 1.539-0.656c0.646 0 1.2 0.2 1.6 0.6 c0.396 0.4 0.6 1.1 0.6 1.945v18.5c0 0.864-0.201 1.513-0.602 1.945c-0.401 0.433-0.92 0.648-1.555 0.6 c-0.625 0-1.133-0.224-1.523-0.672S496.455 110.1 496.5 109.308z"/>
    <path d="M505.361 94.933h0.469V92.37c0-0.688 0.018-1.227 0.055-1.617c0.036-0.391 0.138-0.727 0.305-1.008 c0.166-0.292 0.406-0.528 0.719-0.711c0.312-0.182 0.661-0.273 1.047-0.273c0.541 0 1 0.2 1.5 0.6 c0.291 0.3 0.5 0.6 0.6 0.992s0.117 0.9 0.1 1.664v2.906h1.562c0.604 0 1.1 0.1 1.4 0.4 c0.317 0.3 0.5 0.7 0.5 1.102c0 0.573-0.227 0.974-0.68 1.203s-1.102 0.344-1.945 0.344h-0.797v7.844 c0 0.7 0 1.2 0.1 1.539s0.172 0.7 0.4 0.875s0.533 0.3 1 0.336c0.25 0 0.588-0.044 1.016-0.133 c0.427-0.089 0.76-0.133 1-0.133c0.344 0 0.7 0.1 0.9 0.414c0.275 0.3 0.4 0.6 0.4 1 c0 0.688-0.375 1.214-1.125 1.578s-1.828 0.547-3.234 0.547c-1.334 0-2.344-0.224-3.031-0.672s-1.139-1.067-1.352-1.859 c-0.214-0.792-0.32-1.849-0.32-3.172v-8.188h-0.562c-0.615 0-1.084-0.146-1.406-0.438c-0.323-0.292-0.484-0.661-0.484-1.109 s0.169-0.815 0.508-1.102C504.223 95.1 504.7 94.9 505.4 94.933z"/>
    <path d="M518.611 92.573c-0.594 0-1.102-0.183-1.523-0.547s-0.633-0.88-0.633-1.547c0-0.604 0.216-1.102 0.648-1.492 c0.432-0.391 0.935-0.586 1.508-0.586c0.552 0 1 0.2 1.5 0.531c0.427 0.4 0.6 0.9 0.6 1.5 c0 0.656-0.209 1.169-0.625 1.539C519.679 92.4 519.2 92.6 518.6 92.573z M520.721 96.979v12.328 c0 0.854-0.203 1.5-0.609 1.938s-0.922 0.656-1.547 0.656s-1.133-0.224-1.523-0.672s-0.586-1.089-0.586-1.922V97.104 c0-0.844 0.195-1.479 0.586-1.906s0.898-0.641 1.523-0.641s1.141 0.2 1.5 0.641S520.721 96.2 520.7 96.979z"/>
    <path d="M529.002 96.917v0.516c0.75-0.989 1.57-1.716 2.461-2.18s1.914-0.695 3.07-0.695c1.125 0 2.1 0.2 3 0.7 c0.885 0.5 1.5 1.2 2 2.078c0.281 0.5 0.5 1.1 0.5 1.688c0.083 0.6 0.1 1.4 0.1 2.312v7.938 c0 0.854-0.195 1.5-0.586 1.938s-0.898 0.656-1.523 0.656c-0.636 0-1.151-0.224-1.547-0.672c-0.396-0.448-0.594-1.089-0.594-1.922 v-7.109c0-1.406-0.195-2.481-0.586-3.227s-1.17-1.117-2.336-1.117c-0.761 0-1.453 0.227-2.078 0.68s-1.084 1.075-1.375 1.9 c-0.209 0.636-0.312 1.823-0.312 3.562v5.344c0 0.864-0.201 1.513-0.602 1.945c-0.401 0.433-0.92 0.648-1.555 0.6 c-0.615 0-1.12-0.224-1.516-0.672c-0.396-0.448-0.594-1.089-0.594-1.922V96.979c0-0.812 0.177-1.419 0.531-1.82 c0.354-0.401 0.838-0.602 1.453-0.602c0.375 0 0.7 0.1 1 0.266c0.302 0.2 0.5 0.4 0.7 0.8 C528.91 96 529 96.4 529 96.917z"/>
    <path d="M560.143 97.683v12.391c0 1.417-0.151 2.636-0.453 3.656c-0.303 1.021-0.787 1.864-1.453 2.5 c-0.667 0.667-1.539 1.161-2.617 1.484s-2.42 0.484-4.023 0.484c-1.469 0-2.781-0.206-3.938-0.617s-2.047-0.942-2.672-1.594 s-0.938-1.32-0.938-2.008c0-0.521 0.177-0.945 0.531-1.273c0.354-0.328 0.781-0.492 1.281-0.492c0.625 0 1.2 0.3 1.6 0.8 c0.229 0.3 0.5 0.6 0.7 0.852c0.244 0.3 0.5 0.5 0.8 0.734s0.653 0.4 1.1 0.5 c0.416 0.1 0.9 0.1 1.4 0.148c1.104 0 1.961-0.153 2.57-0.461s1.036-0.737 1.281-1.289c0.244-0.552 0.388-1.144 0.43-1.773 c0.041-0.63 0.072-1.644 0.094-3.039c-0.656 0.917-1.414 1.614-2.273 2.094s-1.883 0.719-3.07 0.7 c-1.428 0-2.675-0.364-3.742-1.094c-1.068-0.729-1.889-1.75-2.461-3.062c-0.573-1.312-0.859-2.828-0.859-4.547 c0-1.281 0.174-2.438 0.523-3.469c0.349-1.031 0.846-1.901 1.492-2.609c0.646-0.708 1.391-1.242 2.234-1.602 s1.771-0.539 2.781-0.539c1.208 0 2.3 0.2 3.1 0.695c0.885 0.5 1.7 1.2 2.5 2.18v-0.578 c0-0.739 0.182-1.312 0.547-1.719c0.364-0.406 0.833-0.609 1.406-0.609c0.822 0 1.4 0.3 1.6 0.8 C560.007 95.9 560.1 96.7 560.1 97.683z M547.783 103.089c0 1.7 0.4 3 1.1 3.9 c0.755 0.9 1.7 1.3 2.9 1.328c0.708 0 1.377-0.19 2.008-0.57c0.63-0.38 1.143-0.953 1.539-1.719 c0.396-0.766 0.594-1.695 0.594-2.789c0-1.739-0.383-3.094-1.148-4.062s-1.773-1.453-3.023-1.453c-1.219 0-2.195 0.464-2.93 1.4 S547.783 101.4 547.8 103.089z"/>
    <path d="M587.408 108.917l-1.094-2.875h-9.312l-1.094 2.938c-0.428 1.146-0.792 1.919-1.094 2.3 c-0.303 0.401-0.797 0.602-1.484 0.602c-0.584 0-1.1-0.214-1.547-0.641c-0.448-0.427-0.672-0.911-0.672-1.453 c0-0.312 0.052-0.636 0.156-0.969c0.104-0.333 0.275-0.797 0.516-1.391l5.859-14.875c0.166-0.427 0.367-0.94 0.602-1.539 s0.484-1.097 0.75-1.492s0.614-0.716 1.047-0.961c0.432-0.245 0.966-0.367 1.602-0.367c0.646 0 1.2 0.1 1.6 0.4 c0.432 0.2 0.8 0.6 1 0.945s0.489 0.8 0.7 1.242c0.182 0.4 0.4 1 0.7 1.773l5.984 14.8 c0.469 1.1 0.7 1.9 0.7 2.453c0 0.531-0.222 1.019-0.664 1.461c-0.443 0.442-0.977 0.664-1.602 0.7 c-0.365 0-0.678-0.065-0.938-0.195c-0.261-0.13-0.479-0.308-0.656-0.531c-0.178-0.224-0.367-0.567-0.57-1.031 S587.554 109.3 587.4 108.917z M578.221 102.558h6.844l-3.453-9.453L578.221 102.558z"/>
    <path d="M599.408 96.948v0.516c0.802-0.989 1.635-1.716 2.5-2.18c0.864-0.464 1.844-0.695 2.938-0.695 c1.312 0 2.5 0.3 3.6 1.016c1.104 0.7 2 1.7 2.6 2.969s0.961 2.8 1 4.625c0 1.312-0.186 2.519-0.555 3.6 c-0.37 1.099-0.878 2.021-1.523 2.766c-0.646 0.745-1.409 1.317-2.289 1.719c-0.881 0.401-1.826 0.602-2.836 0.6 c-1.219 0-2.242-0.245-3.07-0.734s-1.617-1.208-2.367-2.156v6.406c0 1.875-0.683 2.812-2.047 2.8 c-0.803 0-1.334-0.242-1.594-0.727c-0.261-0.484-0.391-1.19-0.391-2.117V96.979c0-0.812 0.177-1.419 0.531-1.82 c0.354-0.401 0.838-0.602 1.453-0.602c0.604 0 1.1 0.2 1.5 0.617C599.218 95.6 599.4 96.2 599.4 96.948z M607.768 103.151c0-1.125-0.172-2.091-0.516-2.898s-0.82-1.427-1.43-1.859s-1.284-0.648-2.023-0.648 c-1.178 0-2.17 0.464-2.977 1.391c-0.808 0.927-1.211 2.292-1.211 4.094c0 1.7 0.4 3 1.2 4 c0.802 0.9 1.8 1.4 3 1.414c0.708 0 1.364-0.206 1.969-0.617c0.604-0.411 1.088-1.028 1.453-1.852 C607.585 105.3 607.8 104.3 607.8 103.151z"/>
    <path d="M633.174 104.636c0 1.386-0.357 2.63-1.07 3.734c-0.714 1.104-1.758 1.969-3.133 2.594s-3.006 0.938-4.891 0.9 c-2.261 0-4.125-0.427-5.594-1.281c-1.042-0.614-1.889-1.435-2.539-2.461c-0.651-1.026-0.977-2.023-0.977-2.992 c0-0.562 0.195-1.044 0.586-1.445s0.888-0.602 1.492-0.602c0.489 0 0.9 0.2 1.2 0.469c0.338 0.3 0.6 0.8 0.9 1.4 c0.291 0.7 0.6 1.3 0.9 1.828c0.338 0.5 0.8 0.9 1.4 1.211c0.614 0.3 1.4 0.5 2.4 0.5 c1.375 0 2.492-0.32 3.352-0.961s1.289-1.44 1.289-2.398c0-0.761-0.232-1.378-0.695-1.852c-0.464-0.474-1.062-0.836-1.797-1.086 s-1.717-0.516-2.945-0.797c-1.646-0.386-3.023-0.836-4.133-1.352s-1.99-1.219-2.641-2.109c-0.651-0.891-0.977-1.997-0.977-3.32 c0-1.261 0.344-2.38 1.031-3.359s1.682-1.731 2.984-2.258c1.302-0.526 2.833-0.789 4.594-0.789c1.406 0 2.6 0.2 3.6 0.5 c1.025 0.3 1.9 0.8 2.6 1.391c0.677 0.6 1.2 1.2 1.5 1.82s0.469 1.3 0.5 1.859c0 0.552-0.195 1.05-0.586 1.5 s-0.878 0.664-1.461 0.664c-0.531 0-0.936-0.133-1.211-0.398c-0.276-0.266-0.576-0.7-0.898-1.305 c-0.417-0.864-0.917-1.539-1.5-2.023c-0.584-0.484-1.521-0.727-2.812-0.727c-1.198 0-2.164 0.263-2.898 0.8 s-1.102 1.159-1.102 1.898c0 0.5 0.1 0.9 0.4 1.188s0.594 0.6 1 0.859s0.88 0.4 1.3 0.6 c0.447 0.1 1.2 0.3 2.2 0.594c1.291 0.3 2.5 0.6 3.5 1s1.938 0.8 2.7 1.328s1.307 1.2 1.7 2 C632.968 102.5 633.2 103.5 633.2 104.636z"/>
  </g>
</svg>
